<?xml version="1.0" encoding="utf-8"?>
<!-- Generator: Adobe Illustrator 25.3.1, SVG Export Plug-In . SVG Version: 6.00 Build 0)  -->
<svg version="1.1" id="Layer_1" xmlns="http://www.w3.org/2000/svg" xmlns:xlink="http://www.w3.org/1999/xlink" x="0px" y="0px"
	 viewBox="0 0 496 496" style="enable-background:new 0 0 496 496;" xml:space="preserve">
<style type="text/css">
	.st0{fill:#6AC66E;}
</style>
<g>
	<rect x="446.88" y="137.76" width="7.88" height="7.87"/>
	<rect x="446.88" y="129.89" width="7.88" height="7.87"/>
	<rect x="439.01" y="295.22" width="7.87" height="7.87"/>
	<rect x="439.01" y="287.35" width="7.87" height="7.87"/>
	<rect x="439.01" y="145.63" width="7.87" height="7.88"/>
	<rect x="439.01" y="137.76" class="st0" width="7.87" height="7.87"/>
	<rect x="439.01" y="129.89" class="st0" width="7.87" height="7.87"/>
	<rect x="439.01" y="122.01" width="7.87" height="7.88"/>
	<rect x="431.14" y="303.09" width="7.87" height="7.88"/>
	<rect x="431.14" y="295.22" class="st0" width="7.87" height="7.87"/>
	<rect x="431.14" y="287.35" class="st0" width="7.87" height="7.87"/>
	<rect x="431.14" y="279.47" width="7.87" height="7.88"/>
	<rect x="431.14" y="153.51" width="7.87" height="7.87"/>
	<rect x="431.14" y="137.76" class="st0" width="7.87" height="7.87"/>
	<rect x="431.14" y="129.89" class="st0" width="7.87" height="7.87"/>
	<rect x="431.14" y="122.01" width="7.87" height="7.88"/>
	<rect x="423.26" y="303.09" width="7.88" height="7.88"/>
	<rect x="423.26" y="295.22" class="st0" width="7.88" height="7.87"/>
	<rect x="423.26" y="287.35" class="st0" width="7.88" height="7.87"/>
	<rect x="423.26" y="271.6" width="7.88" height="7.87"/>
	<rect x="423.26" y="145.63" width="7.88" height="7.88"/>
	<rect x="423.26" y="137.76" class="st0" width="7.88" height="7.87"/>
	<rect x="423.26" y="129.89" class="st0" width="7.88" height="7.87"/>
	<rect x="423.26" y="122.01" width="7.88" height="7.88"/>
	<rect x="415.39" y="303.09" width="7.87" height="7.88"/>
	<rect x="415.39" y="295.22" class="st0" width="7.87" height="7.87"/>
	<rect x="415.39" y="287.35" class="st0" width="7.87" height="7.87"/>
	<rect x="415.39" y="279.47" width="7.87" height="7.88"/>
	<rect x="415.39" y="153.51" width="7.87" height="7.87"/>
	<rect x="415.39" y="137.76" class="st0" width="7.87" height="7.87"/>
	<rect x="415.39" y="129.89" class="st0" width="7.87" height="7.87"/>
	<rect x="415.39" y="122.01" width="7.87" height="7.88"/>
	<rect x="407.52" y="303.09" width="7.87" height="7.88"/>
	<rect x="407.52" y="295.22" class="st0" width="7.87" height="7.87"/>
	<rect x="407.52" y="287.35" class="st0" width="7.87" height="7.87"/>
	<rect x="407.52" y="271.6" width="7.87" height="7.87"/>
	<rect x="407.52" y="145.63" width="7.87" height="7.88"/>
	<rect x="407.52" y="137.76" class="st0" width="7.87" height="7.87"/>
	<rect x="407.52" y="129.89" class="st0" width="7.87" height="7.87"/>
	<rect x="407.52" y="122.01" width="7.87" height="7.88"/>
	<rect x="399.65" y="303.09" width="7.87" height="7.88"/>
	<rect x="399.65" y="295.22" class="st0" width="7.87" height="7.87"/>
	<rect x="399.65" y="287.35" class="st0" width="7.87" height="7.87"/>
	<rect x="399.65" y="279.47" width="7.87" height="7.88"/>
	<rect x="399.65" y="153.51" width="7.87" height="7.87"/>
	<rect x="399.65" y="137.76" class="st0" width="7.87" height="7.87"/>
	<rect x="399.65" y="129.89" class="st0" width="7.87" height="7.87"/>
	<rect x="399.65" y="122.01" width="7.87" height="7.88"/>
	<rect x="391.77" y="303.09" width="7.88" height="7.88"/>
	<rect x="391.77" y="295.22" class="st0" width="7.88" height="7.87"/>
	<rect x="391.77" y="287.35" class="st0" width="7.88" height="7.87"/>
	<rect x="391.77" y="271.6" width="7.88" height="7.87"/>
	<rect x="391.77" y="145.63" width="7.88" height="7.88"/>
	<rect x="391.77" y="137.76" class="st0" width="7.88" height="7.87"/>
	<rect x="391.77" y="129.89" class="st0" width="7.88" height="7.87"/>
	<rect x="391.77" y="122.01" width="7.88" height="7.88"/>
	<rect x="383.9" y="303.09" width="7.87" height="7.88"/>
	<rect x="383.9" y="295.22" class="st0" width="7.87" height="7.87"/>
	<rect x="383.9" y="287.35" class="st0" width="7.87" height="7.87"/>
	<rect x="383.9" y="279.47" width="7.87" height="7.88"/>
	<rect x="383.9" y="153.51" width="7.87" height="7.87"/>
	<rect x="383.9" y="137.76" class="st0" width="7.87" height="7.87"/>
	<rect x="383.9" y="129.89" class="st0" width="7.87" height="7.87"/>
	<rect x="383.9" y="122.01" width="7.87" height="7.88"/>
	<rect x="376.03" y="303.09" width="7.87" height="7.88"/>
	<rect x="376.03" y="295.22" class="st0" width="7.87" height="7.87"/>
	<rect x="376.03" y="287.35" class="st0" width="7.87" height="7.87"/>
	<rect x="376.03" y="271.6" width="7.87" height="7.87"/>
	<rect x="376.03" y="145.63" width="7.87" height="7.88"/>
	<rect x="376.03" y="137.76" class="st0" width="7.87" height="7.87"/>
	<rect x="376.03" y="129.89" class="st0" width="7.87" height="7.87"/>
	<rect x="376.03" y="122.01" width="7.87" height="7.88"/>
	<rect x="368.15" y="303.09" width="7.88" height="7.88"/>
	<rect x="368.15" y="295.22" class="st0" width="7.88" height="7.87"/>
	<rect x="368.15" y="287.35" class="st0" width="7.88" height="7.87"/>
	<rect x="368.15" y="279.47" width="7.88" height="7.88"/>
	<rect x="368.15" y="153.51" width="7.88" height="7.87"/>
	<rect x="368.15" y="137.76" class="st0" width="7.88" height="7.87"/>
	<rect x="368.15" y="129.89" class="st0" width="7.88" height="7.87"/>
	<rect x="368.15" y="122.01" width="7.88" height="7.88"/>
	<rect x="360.28" y="303.09" width="7.87" height="7.88"/>
	<rect x="360.28" y="295.22" class="st0" width="7.87" height="7.87"/>
	<rect x="360.28" y="287.35" class="st0" width="7.87" height="7.87"/>
	<rect x="360.28" y="271.6" width="7.87" height="7.87"/>
	<rect x="360.28" y="145.63" width="7.87" height="7.88"/>
	<rect x="360.28" y="137.76" class="st0" width="7.87" height="7.87"/>
	<rect x="360.28" y="129.89" class="st0" width="7.87" height="7.87"/>
	<rect x="360.28" y="122.01" width="7.87" height="7.88"/>
	<rect x="352.41" y="303.09" width="7.87" height="7.88"/>
	<rect x="352.41" y="295.22" class="st0" width="7.87" height="7.87"/>
	<rect x="352.41" y="287.35" class="st0" width="7.87" height="7.87"/>
	<rect x="352.41" y="279.47" width="7.87" height="7.88"/>
	<rect x="352.41" y="153.51" width="7.87" height="7.87"/>
	<rect x="352.41" y="137.76" class="st0" width="7.87" height="7.87"/>
	<rect x="352.41" y="129.89" class="st0" width="7.87" height="7.87"/>
	<rect x="352.41" y="122.01" class="st0" width="7.87" height="7.88"/>
	<rect x="352.41" y="114.14" width="7.87" height="7.87"/>
	<rect x="344.53" y="303.09" width="7.88" height="7.88"/>
	<rect x="344.53" y="295.22" class="st0" width="7.88" height="7.87"/>
	<rect x="344.53" y="287.35" class="st0" width="7.88" height="7.87"/>
	<rect x="344.53" y="279.47" class="st0" width="7.88" height="7.88"/>
	<rect x="344.53" y="271.6" width="7.88" height="7.87"/>
	<rect x="344.53" y="145.63" width="7.88" height="7.88"/>
	<rect x="344.53" y="137.76" class="st0" width="7.88" height="7.87"/>
	<rect x="344.53" y="129.89" class="st0" width="7.88" height="7.87"/>
	<rect x="344.53" y="122.01" class="st0" width="7.88" height="7.88"/>
	<rect x="344.53" y="114.14" class="st0" width="7.88" height="7.87"/>
	<rect x="344.53" y="106.27" width="7.88" height="7.87"/>
	<rect x="336.66" y="303.09" width="7.87" height="7.88"/>
	<rect x="336.66" y="295.22" class="st0" width="7.87" height="7.87"/>
	<rect x="336.66" y="287.35" class="st0" width="7.87" height="7.87"/>
	<rect x="336.66" y="279.47" class="st0" width="7.87" height="7.88"/>
	<rect x="336.66" y="271.6" class="st0" width="7.87" height="7.87"/>
	<rect x="336.66" y="263.73" width="7.87" height="7.87"/>
	<rect x="336.66" y="255.86" width="7.87" height="7.87"/>
	<rect x="336.66" y="247.98" width="7.87" height="7.88"/>
	<rect x="336.66" y="240.11" width="7.87" height="7.87"/>
	<rect x="336.66" y="232.24" width="7.87" height="7.87"/>
	<rect x="336.66" y="224.36" width="7.87" height="7.88"/>
	<rect x="336.66" y="216.49" width="7.87" height="7.87"/>
	<rect x="336.66" y="208.62" width="7.87" height="7.87"/>
	<rect x="336.66" y="200.74" width="7.87" height="7.88"/>
	<rect x="336.66" y="192.87" width="7.87" height="7.87"/>
	<rect x="336.66" y="185" width="7.87" height="7.87"/>
	<rect x="336.66" y="177.13" width="7.87" height="7.87"/>
	<rect x="336.66" y="169.25" width="7.87" height="7.88"/>
	<rect x="336.66" y="161.38" width="7.87" height="7.87"/>
	<rect x="336.66" y="153.51" width="7.87" height="7.87"/>
	<rect x="336.66" y="145.63" class="st0" width="7.87" height="7.88"/>
	<rect x="336.66" y="137.76" class="st0" width="7.87" height="7.87"/>
	<rect x="336.66" y="129.89" class="st0" width="7.87" height="7.87"/>
	<rect x="336.66" y="122.01" width="7.87" height="7.88"/>
	<rect x="336.66" y="114.14" class="st0" width="7.87" height="7.87"/>
	<rect x="336.66" y="106.27" class="st0" width="7.87" height="7.87"/>
	<rect x="336.66" y="98.4" width="7.87" height="7.87"/>
	<rect x="328.79" y="303.09" width="7.87" height="7.88"/>
	<rect x="328.79" y="295.22" class="st0" width="7.87" height="7.87"/>
	<rect x="328.79" y="287.35" class="st0" width="7.87" height="7.87"/>
	<rect x="328.79" y="279.47" class="st0" width="7.87" height="7.88"/>
	<rect x="328.79" y="271.6" class="st0" width="7.87" height="7.87"/>
	<rect x="328.79" y="263.73" class="st0" width="7.87" height="7.87"/>
	<rect x="328.79" y="255.86" class="st0" width="7.87" height="7.87"/>
	<rect x="328.79" y="247.98" class="st0" width="7.87" height="7.88"/>
	<rect x="328.79" y="240.11" class="st0" width="7.87" height="7.87"/>
	<rect x="328.79" y="232.24" class="st0" width="7.87" height="7.87"/>
	<rect x="328.79" y="224.36" class="st0" width="7.87" height="7.88"/>
	<rect x="328.79" y="216.49" class="st0" width="7.87" height="7.87"/>
	<rect x="328.79" y="208.62" class="st0" width="7.87" height="7.87"/>
	<rect x="328.79" y="200.74" class="st0" width="7.87" height="7.88"/>
	<rect x="328.79" y="192.87" class="st0" width="7.87" height="7.87"/>
	<rect x="328.79" y="185" class="st0" width="7.87" height="7.87"/>
	<rect x="328.79" y="177.13" class="st0" width="7.87" height="7.87"/>
	<rect x="328.79" y="169.25" class="st0" width="7.87" height="7.88"/>
	<rect x="328.79" y="161.38" class="st0" width="7.87" height="7.87"/>
	<rect x="328.79" y="153.51" class="st0" width="7.87" height="7.87"/>
	<rect x="328.79" y="145.63" class="st0" width="7.87" height="7.88"/>
	<rect x="328.79" y="137.76" class="st0" width="7.87" height="7.87"/>
	<rect x="328.79" y="129.89" class="st0" width="7.87" height="7.87"/>
	<rect x="328.79" y="122.01" class="st0" width="7.87" height="7.88"/>
	<rect x="328.79" y="114.14" class="st0" width="7.87" height="7.87"/>
	<rect x="328.79" y="106.27" class="st0" width="7.87" height="7.87"/>
	<rect x="328.79" y="98.4" width="7.87" height="7.87"/>
	<rect x="320.92" y="326.71" width="7.87" height="7.88"/>
	<rect x="320.92" y="303.09" width="7.87" height="7.88"/>
	<rect x="320.92" y="295.22" class="st0" width="7.87" height="7.87"/>
	<rect x="320.92" y="287.35" class="st0" width="7.87" height="7.87"/>
	<rect x="320.92" y="279.47" class="st0" width="7.87" height="7.88"/>
	<rect x="320.92" y="271.6" class="st0" width="7.87" height="7.87"/>
	<rect x="320.92" y="263.73" class="st0" width="7.87" height="7.87"/>
	<rect x="320.92" y="255.86" class="st0" width="7.87" height="7.87"/>
	<rect x="320.92" y="247.98" class="st0" width="7.87" height="7.88"/>
	<rect x="320.92" y="240.11" class="st0" width="7.87" height="7.87"/>
	<rect x="320.92" y="232.24" class="st0" width="7.87" height="7.87"/>
	<rect x="320.92" y="224.36" class="st0" width="7.87" height="7.88"/>
	<rect x="320.92" y="216.49" class="st0" width="7.87" height="7.87"/>
	<rect x="320.92" y="208.62" class="st0" width="7.87" height="7.87"/>
	<rect x="320.92" y="200.74" class="st0" width="7.87" height="7.88"/>
	<rect x="320.92" y="192.87" class="st0" width="7.87" height="7.87"/>
	<rect x="320.92" y="185" class="st0" width="7.87" height="7.87"/>
	<rect x="320.92" y="177.13" class="st0" width="7.87" height="7.87"/>
	<rect x="320.92" y="169.25" class="st0" width="7.87" height="7.88"/>
	<rect x="320.92" y="161.38" class="st0" width="7.87" height="7.87"/>
	<rect x="320.92" y="153.51" class="st0" width="7.87" height="7.87"/>
	<rect x="320.92" y="145.63" class="st0" width="7.87" height="7.88"/>
	<rect x="320.92" y="137.76" class="st0" width="7.87" height="7.87"/>
	<rect x="320.92" y="129.89" class="st0" width="7.87" height="7.87"/>
	<rect x="320.92" y="122.01" class="st0" width="7.87" height="7.88"/>
	<rect x="320.92" y="114.14" class="st0" width="7.87" height="7.87"/>
	<rect x="320.92" y="106.27" class="st0" width="7.87" height="7.87"/>
	<rect x="320.92" y="98.4" width="7.87" height="7.87"/>
	<rect x="313.04" y="326.71" width="7.88" height="7.88"/>
	<rect x="313.04" y="318.84" width="7.88" height="7.87"/>
	<rect x="313.04" y="310.97" width="7.88" height="7.87"/>
	<rect x="313.04" y="303.09" width="7.88" height="7.88"/>
	<rect x="313.04" y="295.22" class="st0" width="7.88" height="7.87"/>
	<rect x="313.04" y="287.35" class="st0" width="7.88" height="7.87"/>
	<rect x="313.04" y="279.47" class="st0" width="7.88" height="7.88"/>
	<rect x="313.04" y="271.6" class="st0" width="7.88" height="7.87"/>
	<rect x="313.04" y="263.73" class="st0" width="7.88" height="7.87"/>
	<rect x="313.04" y="255.86" class="st0" width="7.88" height="7.87"/>
	<rect x="313.04" y="247.98" class="st0" width="7.88" height="7.88"/>
	<rect x="313.04" y="240.11" class="st0" width="7.88" height="7.87"/>
	<rect x="313.04" y="232.24" class="st0" width="7.88" height="7.87"/>
	<rect x="313.04" y="224.36" class="st0" width="7.88" height="7.88"/>
	<rect x="313.04" y="216.49" class="st0" width="7.88" height="7.87"/>
	<rect x="313.04" y="208.62" class="st0" width="7.88" height="7.87"/>
	<rect x="313.04" y="200.74" class="st0" width="7.88" height="7.88"/>
	<rect x="313.04" y="192.87" class="st0" width="7.88" height="7.87"/>
	<rect x="313.04" y="185" class="st0" width="7.88" height="7.87"/>
	<rect x="313.04" y="177.13" class="st0" width="7.88" height="7.87"/>
	<rect x="313.04" y="169.25" class="st0" width="7.88" height="7.88"/>
	<rect x="313.04" y="161.38" class="st0" width="7.88" height="7.87"/>
	<rect x="313.04" y="153.51" class="st0" width="7.88" height="7.87"/>
	<rect x="313.04" y="145.63" class="st0" width="7.88" height="7.88"/>
	<rect x="313.04" y="137.76" class="st0" width="7.88" height="7.87"/>
	<rect x="313.04" y="129.89" class="st0" width="7.88" height="7.87"/>
	<rect x="313.04" y="122.01" class="st0" width="7.88" height="7.88"/>
	<rect x="313.04" y="114.14" class="st0" width="7.88" height="7.87"/>
	<rect x="313.04" y="106.27" class="st0" width="7.88" height="7.87"/>
	<rect x="313.04" y="98.4" width="7.88" height="7.87"/>
	<rect x="305.17" y="326.71" width="7.87" height="7.88"/>
	<rect x="305.17" y="318.84" width="7.87" height="7.87"/>
	<rect x="305.17" y="310.97" width="7.87" height="7.87"/>
	<rect x="305.17" y="303.09" width="7.87" height="7.88"/>
	<rect x="305.17" y="295.22" class="st0" width="7.87" height="7.87"/>
	<rect x="305.17" y="287.35" class="st0" width="7.87" height="7.87"/>
	<rect x="305.17" y="279.47" class="st0" width="7.87" height="7.88"/>
	<rect x="305.17" y="271.6" class="st0" width="7.87" height="7.87"/>
	<rect x="305.17" y="263.73" class="st0" width="7.87" height="7.87"/>
	<rect x="305.17" y="255.86" class="st0" width="7.87" height="7.87"/>
	<rect x="305.17" y="247.98" class="st0" width="7.87" height="7.88"/>
	<rect x="305.17" y="240.11" class="st0" width="7.87" height="7.87"/>
	<rect x="305.17" y="232.24" class="st0" width="7.87" height="7.87"/>
	<rect x="305.17" y="224.36" class="st0" width="7.87" height="7.88"/>
	<rect x="305.17" y="216.49" class="st0" width="7.87" height="7.87"/>
	<rect x="305.17" y="208.62" class="st0" width="7.87" height="7.87"/>
	<rect x="305.17" y="200.74" class="st0" width="7.87" height="7.88"/>
	<rect x="305.17" y="192.87" class="st0" width="7.87" height="7.87"/>
	<rect x="305.17" y="185" class="st0" width="7.87" height="7.87"/>
	<rect x="305.17" y="177.13" class="st0" width="7.87" height="7.87"/>
	<rect x="305.17" y="169.25" class="st0" width="7.87" height="7.88"/>
	<rect x="305.17" y="161.38" class="st0" width="7.87" height="7.87"/>
	<rect x="305.17" y="153.51" class="st0" width="7.87" height="7.87"/>
	<rect x="305.17" y="145.63" class="st0" width="7.87" height="7.88"/>
	<rect x="305.17" y="137.76" class="st0" width="7.87" height="7.87"/>
	<rect x="305.17" y="129.89" class="st0" width="7.87" height="7.87"/>
	<rect x="305.17" y="122.01" class="st0" width="7.87" height="7.88"/>
	<rect x="305.17" y="114.14" class="st0" width="7.87" height="7.87"/>
	<rect x="305.17" y="106.27" width="7.87" height="7.87"/>
	<rect x="297.3" y="303.09" width="7.87" height="7.88"/>
	<rect x="297.3" y="295.22" class="st0" width="7.87" height="7.87"/>
	<rect x="297.3" y="287.35" class="st0" width="7.87" height="7.87"/>
	<rect x="297.3" y="279.47" class="st0" width="7.87" height="7.88"/>
	<rect x="297.3" y="271.6" class="st0" width="7.87" height="7.87"/>
	<rect x="297.3" y="263.73" class="st0" width="7.87" height="7.87"/>
	<rect x="297.3" y="255.86" class="st0" width="7.87" height="7.87"/>
	<rect x="297.3" y="247.98" class="st0" width="7.87" height="7.88"/>
	<rect x="297.3" y="240.11" class="st0" width="7.87" height="7.87"/>
	<rect x="297.3" y="232.24" class="st0" width="7.87" height="7.87"/>
	<rect x="297.3" y="224.36" class="st0" width="7.87" height="7.88"/>
	<rect x="297.3" y="216.49" class="st0" width="7.87" height="7.87"/>
	<rect x="297.3" y="208.62" class="st0" width="7.87" height="7.87"/>
	<rect x="297.3" y="200.74" class="st0" width="7.87" height="7.88"/>
	<rect x="297.3" y="192.87" class="st0" width="7.87" height="7.87"/>
	<rect x="297.3" y="185" class="st0" width="7.87" height="7.87"/>
	<rect x="297.3" y="177.13" class="st0" width="7.87" height="7.87"/>
	<rect x="297.3" y="169.25" class="st0" width="7.87" height="7.88"/>
	<rect x="297.3" y="161.38" class="st0" width="7.87" height="7.87"/>
	<rect x="297.3" y="153.51" class="st0" width="7.87" height="7.87"/>
	<rect x="297.3" y="145.63" class="st0" width="7.87" height="7.88"/>
	<rect x="297.3" y="137.76" class="st0" width="7.87" height="7.87"/>
	<rect x="297.3" y="129.89" class="st0" width="7.87" height="7.87"/>
	<rect x="297.3" y="122.01" class="st0" width="7.87" height="7.88"/>
	<rect x="297.3" y="114.14" width="7.87" height="7.87"/>
	<rect x="289.42" y="303.09" width="7.88" height="7.88"/>
	<rect x="289.42" y="295.22" class="st0" width="7.88" height="7.87"/>
	<rect x="289.42" y="287.35" class="st0" width="7.88" height="7.87"/>
	<rect x="289.42" y="279.47" class="st0" width="7.88" height="7.88"/>
	<rect x="289.42" y="271.6" class="st0" width="7.88" height="7.87"/>
	<rect x="289.42" y="263.73" class="st0" width="7.88" height="7.87"/>
	<rect x="289.42" y="255.86" class="st0" width="7.88" height="7.87"/>
	<rect x="289.42" y="247.98" class="st0" width="7.88" height="7.88"/>
	<rect x="289.42" y="240.11" class="st0" width="7.88" height="7.87"/>
	<rect x="289.42" y="232.24" class="st0" width="7.88" height="7.87"/>
	<rect x="289.42" y="224.36" class="st0" width="7.88" height="7.88"/>
	<rect x="289.42" y="216.49" class="st0" width="7.88" height="7.87"/>
	<rect x="289.42" y="208.62" class="st0" width="7.88" height="7.87"/>
	<rect x="289.42" y="200.74" class="st0" width="7.88" height="7.88"/>
	<rect x="289.42" y="192.87" class="st0" width="7.88" height="7.87"/>
	<rect x="289.42" y="185" class="st0" width="7.88" height="7.87"/>
	<rect x="289.42" y="177.13" class="st0" width="7.88" height="7.87"/>
	<rect x="289.42" y="169.25" class="st0" width="7.88" height="7.88"/>
	<rect x="289.42" y="161.38" class="st0" width="7.88" height="7.87"/>
	<rect x="289.42" y="153.51" class="st0" width="7.88" height="7.87"/>
	<rect x="289.42" y="145.63" class="st0" width="7.88" height="7.88"/>
	<rect x="289.42" y="137.76" class="st0" width="7.88" height="7.87"/>
	<rect x="289.42" y="129.89" class="st0" width="7.88" height="7.87"/>
	<rect x="289.42" y="122.01" class="st0" width="7.88" height="7.88"/>
	<rect x="289.42" y="114.14" width="7.88" height="7.87"/>
	<rect x="281.55" y="303.09" width="7.87" height="7.88"/>
	<rect x="281.55" y="295.22" class="st0" width="7.87" height="7.87"/>
	<rect x="281.55" y="287.35" class="st0" width="7.87" height="7.87"/>
	<rect x="281.55" y="279.47" class="st0" width="7.87" height="7.88"/>
	<rect x="281.55" y="271.6" class="st0" width="7.87" height="7.87"/>
	<rect x="281.55" y="263.73" class="st0" width="7.87" height="7.87"/>
	<rect x="281.55" y="255.86" class="st0" width="7.87" height="7.87"/>
	<rect x="281.55" y="247.98" class="st0" width="7.87" height="7.88"/>
	<rect x="281.55" y="240.11" class="st0" width="7.87" height="7.87"/>
	<rect x="281.55" y="232.24" class="st0" width="7.87" height="7.87"/>
	<rect x="281.55" y="224.36" class="st0" width="7.87" height="7.88"/>
	<rect x="281.55" y="216.49" class="st0" width="7.87" height="7.87"/>
	<rect x="281.55" y="208.62" class="st0" width="7.87" height="7.87"/>
	<rect x="281.55" y="200.74" class="st0" width="7.87" height="7.88"/>
	<rect x="281.55" y="192.87" class="st0" width="7.87" height="7.87"/>
	<rect x="281.55" y="185" class="st0" width="7.87" height="7.87"/>
	<rect x="281.55" y="177.13" class="st0" width="7.87" height="7.87"/>
	<rect x="281.55" y="169.25" class="st0" width="7.87" height="7.88"/>
	<rect x="281.55" y="161.38" class="st0" width="7.87" height="7.87"/>
	<rect x="281.55" y="153.51" class="st0" width="7.87" height="7.87"/>
	<rect x="281.55" y="145.63" class="st0" width="7.87" height="7.88"/>
	<rect x="281.55" y="137.76" class="st0" width="7.87" height="7.87"/>
	<rect x="281.55" y="129.89" class="st0" width="7.87" height="7.87"/>
	<rect x="281.55" y="122.01" width="7.87" height="7.88"/>
	<rect x="273.68" y="326.71" width="7.87" height="7.88"/>
	<rect x="273.68" y="303.09" width="7.87" height="7.88"/>
	<rect x="273.68" y="295.22" class="st0" width="7.87" height="7.87"/>
	<rect x="273.68" y="287.35" class="st0" width="7.87" height="7.87"/>
	<rect x="273.68" y="279.47" class="st0" width="7.87" height="7.88"/>
	<rect x="273.68" y="271.6" class="st0" width="7.87" height="7.87"/>
	<rect x="273.68" y="263.73" class="st0" width="7.87" height="7.87"/>
	<rect x="273.68" y="255.86" class="st0" width="7.87" height="7.87"/>
	<rect x="273.68" y="247.98" class="st0" width="7.87" height="7.88"/>
	<rect x="273.68" y="240.11" class="st0" width="7.87" height="7.87"/>
	<rect x="273.68" y="232.24" class="st0" width="7.87" height="7.87"/>
	<rect x="273.68" y="224.36" class="st0" width="7.87" height="7.88"/>
	<rect x="273.68" y="216.49" class="st0" width="7.87" height="7.87"/>
	<rect x="273.68" y="208.62" class="st0" width="7.87" height="7.87"/>
	<rect x="273.68" y="200.74" class="st0" width="7.87" height="7.88"/>
	<rect x="273.68" y="192.87" class="st0" width="7.87" height="7.87"/>
	<rect x="273.68" y="185" class="st0" width="7.87" height="7.87"/>
	<rect x="273.68" y="177.13" class="st0" width="7.87" height="7.87"/>
	<rect x="273.68" y="169.25" class="st0" width="7.87" height="7.88"/>
	<rect x="273.68" y="161.38" class="st0" width="7.87" height="7.87"/>
	<rect x="273.68" y="153.51" class="st0" width="7.87" height="7.87"/>
	<rect x="273.68" y="145.63" class="st0" width="7.87" height="7.88"/>
	<rect x="273.68" y="137.76" class="st0" width="7.87" height="7.87"/>
	<rect x="273.68" y="129.89" width="7.87" height="7.87"/>
	<rect x="265.8" y="326.71" width="7.88" height="7.88"/>
	<rect x="265.8" y="318.84" width="7.88" height="7.87"/>
	<rect x="265.8" y="310.97" width="7.88" height="7.87"/>
	<rect x="265.8" y="303.09" width="7.88" height="7.88"/>
	<rect x="265.8" y="295.22" class="st0" width="7.88" height="7.87"/>
	<rect x="265.8" y="287.35" class="st0" width="7.88" height="7.87"/>
	<rect x="265.8" y="279.47" class="st0" width="7.88" height="7.88"/>
	<rect x="265.8" y="271.6" class="st0" width="7.88" height="7.87"/>
	<rect x="265.8" y="263.73" class="st0" width="7.88" height="7.87"/>
	<rect x="265.8" y="255.86" class="st0" width="7.88" height="7.87"/>
	<rect x="265.8" y="247.98" class="st0" width="7.88" height="7.88"/>
	<rect x="265.8" y="240.11" class="st0" width="7.88" height="7.87"/>
	<rect x="265.8" y="232.24" class="st0" width="7.88" height="7.87"/>
	<rect x="265.8" y="224.36" class="st0" width="7.88" height="7.88"/>
	<rect x="265.8" y="216.49" class="st0" width="7.88" height="7.87"/>
	<rect x="265.8" y="208.62" class="st0" width="7.88" height="7.87"/>
	<rect x="265.8" y="200.74" class="st0" width="7.88" height="7.88"/>
	<rect x="265.8" y="192.87" class="st0" width="7.88" height="7.87"/>
	<rect x="265.8" y="185" class="st0" width="7.88" height="7.87"/>
	<rect x="265.8" y="177.13" class="st0" width="7.88" height="7.87"/>
	<rect x="265.8" y="169.25" class="st0" width="7.88" height="7.88"/>
	<rect x="265.8" y="161.38" class="st0" width="7.88" height="7.87"/>
	<rect x="265.8" y="153.51" class="st0" width="7.88" height="7.87"/>
	<rect x="265.8" y="145.63" class="st0" width="7.88" height="7.88"/>
	<rect x="265.8" y="137.76" class="st0" width="7.88" height="7.87"/>
	<rect x="265.8" y="129.89" width="7.88" height="7.87"/>
	<rect x="257.93" y="326.71" width="7.87" height="7.88"/>
	<rect x="257.93" y="318.84" width="7.87" height="7.87"/>
	<rect x="257.93" y="310.97" width="7.87" height="7.87"/>
	<rect x="257.93" y="303.09" width="7.87" height="7.88"/>
	<rect x="257.93" y="295.22" class="st0" width="7.87" height="7.87"/>
	<rect x="257.93" y="287.35" class="st0" width="7.87" height="7.87"/>
	<rect x="257.93" y="279.47" class="st0" width="7.87" height="7.88"/>
	<rect x="257.93" y="271.6" class="st0" width="7.87" height="7.87"/>
	<rect x="257.93" y="263.73" class="st0" width="7.87" height="7.87"/>
	<rect x="257.93" y="255.86" class="st0" width="7.87" height="7.87"/>
	<rect x="257.93" y="247.98" class="st0" width="7.87" height="7.88"/>
	<rect x="257.93" y="240.11" class="st0" width="7.87" height="7.87"/>
	<rect x="257.93" y="232.24" class="st0" width="7.87" height="7.87"/>
	<rect x="257.93" y="224.36" class="st0" width="7.87" height="7.88"/>
	<rect x="257.93" y="216.49" class="st0" width="7.87" height="7.87"/>
	<rect x="257.93" y="208.62" class="st0" width="7.87" height="7.87"/>
	<rect x="257.93" y="200.74" class="st0" width="7.87" height="7.88"/>
	<rect x="257.93" y="192.87" class="st0" width="7.87" height="7.87"/>
	<rect x="257.93" y="185" class="st0" width="7.87" height="7.87"/>
	<rect x="257.93" y="177.13" class="st0" width="7.87" height="7.87"/>
	<rect x="257.93" y="169.25" class="st0" width="7.87" height="7.88"/>
	<rect x="257.93" y="161.38" class="st0" width="7.87" height="7.87"/>
	<rect x="257.93" y="153.51" class="st0" width="7.87" height="7.87"/>
	<rect x="257.93" y="145.63" class="st0" width="7.87" height="7.88"/>
	<rect x="257.93" y="137.76" width="7.87" height="7.87"/>
	<rect x="250.06" y="303.09" width="7.87" height="7.88"/>
	<rect x="250.06" y="295.22" class="st0" width="7.87" height="7.87"/>
	<rect x="250.06" y="287.35" class="st0" width="7.87" height="7.87"/>
	<rect x="250.06" y="279.47" class="st0" width="7.87" height="7.88"/>
	<rect x="250.06" y="271.6" class="st0" width="7.87" height="7.87"/>
	<rect x="250.06" y="263.73" class="st0" width="7.87" height="7.87"/>
	<rect x="250.06" y="255.86" class="st0" width="7.87" height="7.87"/>
	<rect x="250.06" y="247.98" class="st0" width="7.87" height="7.88"/>
	<rect x="250.06" y="240.11" class="st0" width="7.87" height="7.87"/>
	<rect x="250.06" y="232.24" class="st0" width="7.87" height="7.87"/>
	<rect x="250.06" y="224.36" class="st0" width="7.87" height="7.88"/>
	<rect x="250.06" y="216.49" class="st0" width="7.87" height="7.87"/>
	<rect x="250.06" y="208.62" class="st0" width="7.87" height="7.87"/>
	<rect x="250.06" y="200.74" class="st0" width="7.87" height="7.88"/>
	<rect x="250.06" y="192.87" class="st0" width="7.87" height="7.87"/>
	<rect x="250.06" y="185" class="st0" width="7.87" height="7.87"/>
	<rect x="250.06" y="177.13" class="st0" width="7.87" height="7.87"/>
	<rect x="250.06" y="169.25" class="st0" width="7.87" height="7.88"/>
	<rect x="250.06" y="161.38" class="st0" width="7.87" height="7.87"/>
	<rect x="250.06" y="153.51" class="st0" width="7.87" height="7.87"/>
	<rect x="250.06" y="145.63" width="7.87" height="7.88"/>
	<rect x="242.19" y="303.09" width="7.87" height="7.88"/>
	<rect x="242.19" y="295.22" class="st0" width="7.87" height="7.87"/>
	<rect x="242.19" y="287.35" class="st0" width="7.87" height="7.87"/>
	<rect x="242.19" y="279.47" class="st0" width="7.87" height="7.88"/>
	<rect x="242.19" y="271.6" class="st0" width="7.87" height="7.87"/>
	<rect x="242.19" y="263.73" class="st0" width="7.87" height="7.87"/>
	<rect x="242.19" y="255.86" class="st0" width="7.87" height="7.87"/>
	<rect x="242.19" y="247.98" class="st0" width="7.87" height="7.88"/>
	<rect x="242.19" y="240.11" class="st0" width="7.87" height="7.87"/>
	<rect x="242.19" y="232.24" class="st0" width="7.87" height="7.87"/>
	<rect x="242.19" y="224.36" class="st0" width="7.87" height="7.88"/>
	<rect x="242.19" y="216.49" class="st0" width="7.87" height="7.87"/>
	<rect x="242.19" y="208.62" class="st0" width="7.87" height="7.87"/>
	<rect x="242.19" y="200.74" class="st0" width="7.87" height="7.88"/>
	<rect x="242.19" y="192.87" class="st0" width="7.87" height="7.87"/>
	<rect x="242.19" y="185" class="st0" width="7.87" height="7.87"/>
	<rect x="242.19" y="177.13" class="st0" width="7.87" height="7.87"/>
	<rect x="242.19" y="169.25" class="st0" width="7.87" height="7.88"/>
	<rect x="242.19" y="161.38" class="st0" width="7.87" height="7.87"/>
	<rect x="242.19" y="153.51" width="7.87" height="7.87"/>
	<rect x="242.19" y="145.63" width="7.87" height="7.88"/>
	<rect x="234.31" y="303.09" width="7.88" height="7.88"/>
	<rect x="234.31" y="295.22" class="st0" width="7.88" height="7.87"/>
	<rect x="234.31" y="287.35" class="st0" width="7.88" height="7.87"/>
	<rect x="234.31" y="279.47" class="st0" width="7.88" height="7.88"/>
	<rect x="234.31" y="271.6" class="st0" width="7.88" height="7.87"/>
	<rect x="234.31" y="263.73" class="st0" width="7.88" height="7.87"/>
	<rect x="234.31" y="255.86" class="st0" width="7.88" height="7.87"/>
	<rect x="234.31" y="247.98" class="st0" width="7.88" height="7.88"/>
	<rect x="234.31" y="240.11" class="st0" width="7.88" height="7.87"/>
	<rect x="234.31" y="232.24" class="st0" width="7.88" height="7.87"/>
	<rect x="234.31" y="224.36" class="st0" width="7.88" height="7.88"/>
	<rect x="234.31" y="216.49" class="st0" width="7.88" height="7.87"/>
	<rect x="234.31" y="208.62" class="st0" width="7.88" height="7.87"/>
	<rect x="234.31" y="200.74" class="st0" width="7.88" height="7.88"/>
	<rect x="234.31" y="192.87" class="st0" width="7.88" height="7.87"/>
	<rect x="234.31" y="185" class="st0" width="7.88" height="7.87"/>
	<rect x="234.31" y="177.13" class="st0" width="7.88" height="7.87"/>
	<rect x="234.31" y="169.25" class="st0" width="7.88" height="7.88"/>
	<rect x="234.31" y="161.38" width="7.88" height="7.87"/>
	<rect x="226.44" y="303.09" width="7.87" height="7.88"/>
	<rect x="226.44" y="295.22" class="st0" width="7.87" height="7.87"/>
	<rect x="226.44" y="287.35" class="st0" width="7.87" height="7.87"/>
	<rect x="226.44" y="279.47" class="st0" width="7.87" height="7.88"/>
	<rect x="226.44" y="271.6" class="st0" width="7.87" height="7.87"/>
	<rect x="226.44" y="263.73" class="st0" width="7.87" height="7.87"/>
	<rect x="226.44" y="255.86" class="st0" width="7.87" height="7.87"/>
	<rect x="226.44" y="247.98" class="st0" width="7.87" height="7.88"/>
	<rect x="226.44" y="240.11" class="st0" width="7.87" height="7.87"/>
	<rect x="226.44" y="232.24" class="st0" width="7.87" height="7.87"/>
	<rect x="226.44" y="224.36" class="st0" width="7.87" height="7.88"/>
	<rect x="226.44" y="216.49" class="st0" width="7.87" height="7.87"/>
	<rect x="226.44" y="208.62" class="st0" width="7.87" height="7.87"/>
	<rect x="226.44" y="200.74" class="st0" width="7.87" height="7.88"/>
	<rect x="226.44" y="192.87" class="st0" width="7.87" height="7.87"/>
	<rect x="226.44" y="185" class="st0" width="7.87" height="7.87"/>
	<rect x="226.44" y="177.13" class="st0" width="7.87" height="7.87"/>
	<rect x="226.44" y="169.25" width="7.87" height="7.88"/>
	<rect x="226.44" y="161.38" width="7.87" height="7.87"/>
	<rect x="218.57" y="303.09" width="7.87" height="7.88"/>
	<rect x="218.57" y="295.22" class="st0" width="7.87" height="7.87"/>
	<rect x="218.57" y="287.35" class="st0" width="7.87" height="7.87"/>
	<rect x="218.57" y="279.47" class="st0" width="7.87" height="7.88"/>
	<rect x="218.57" y="271.6" class="st0" width="7.87" height="7.87"/>
	<rect x="218.57" y="263.73" class="st0" width="7.87" height="7.87"/>
	<rect x="218.57" y="255.86" class="st0" width="7.87" height="7.87"/>
	<rect x="218.57" y="247.98" class="st0" width="7.87" height="7.88"/>
	<rect x="218.57" y="240.11" class="st0" width="7.87" height="7.87"/>
	<rect x="218.57" y="232.24" class="st0" width="7.87" height="7.87"/>
	<rect x="218.57" y="224.36" class="st0" width="7.87" height="7.88"/>
	<rect x="218.57" y="216.49" class="st0" width="7.87" height="7.87"/>
	<rect x="218.57" y="208.62" class="st0" width="7.87" height="7.87"/>
	<rect x="218.57" y="200.74" class="st0" width="7.87" height="7.88"/>
	<rect x="218.57" y="192.87" class="st0" width="7.87" height="7.87"/>
	<rect x="218.57" y="185" class="st0" width="7.87" height="7.87"/>
	<rect x="218.57" y="177.13" width="7.87" height="7.87"/>
	<rect x="210.69" y="303.09" width="7.88" height="7.88"/>
	<rect x="210.69" y="295.22" class="st0" width="7.88" height="7.87"/>
	<rect x="210.69" y="287.35" class="st0" width="7.88" height="7.87"/>
	<rect x="210.69" y="279.47" class="st0" width="7.88" height="7.88"/>
	<rect x="210.69" y="271.6" class="st0" width="7.88" height="7.87"/>
	<rect x="210.69" y="263.73" class="st0" width="7.88" height="7.87"/>
	<rect x="210.69" y="255.86" class="st0" width="7.88" height="7.87"/>
	<rect x="210.69" y="247.98" class="st0" width="7.88" height="7.88"/>
	<rect x="210.69" y="240.11" class="st0" width="7.88" height="7.87"/>
	<rect x="210.69" y="232.24" class="st0" width="7.88" height="7.87"/>
	<rect x="210.69" y="224.36" class="st0" width="7.88" height="7.88"/>
	<rect x="210.69" y="216.49" class="st0" width="7.88" height="7.87"/>
	<rect x="210.69" y="208.62" class="st0" width="7.88" height="7.87"/>
	<rect x="210.69" y="200.74" class="st0" width="7.88" height="7.88"/>
	<rect x="210.69" y="192.87" class="st0" width="7.88" height="7.87"/>
	<rect x="210.69" y="185" width="7.88" height="7.87"/>
	<rect x="210.69" y="177.13" width="7.88" height="7.87"/>
	<rect x="202.82" y="303.09" width="7.87" height="7.88"/>
	<rect x="202.82" y="295.22" class="st0" width="7.87" height="7.87"/>
	<rect x="202.82" y="287.35" class="st0" width="7.87" height="7.87"/>
	<rect x="202.82" y="279.47" class="st0" width="7.87" height="7.88"/>
	<rect x="202.82" y="271.6" class="st0" width="7.87" height="7.87"/>
	<rect x="202.82" y="263.73" class="st0" width="7.87" height="7.87"/>
	<rect x="202.82" y="255.86" class="st0" width="7.87" height="7.87"/>
	<rect x="202.82" y="247.98" class="st0" width="7.87" height="7.88"/>
	<rect x="202.82" y="240.11" class="st0" width="7.87" height="7.87"/>
	<rect x="202.82" y="232.24" class="st0" width="7.87" height="7.87"/>
	<rect x="202.82" y="224.36" class="st0" width="7.87" height="7.88"/>
	<rect x="202.82" y="216.49" class="st0" width="7.87" height="7.87"/>
	<rect x="202.82" y="208.62" class="st0" width="7.87" height="7.87"/>
	<rect x="202.82" y="200.74" class="st0" width="7.87" height="7.88"/>
	<rect x="202.82" y="192.87" width="7.87" height="7.87"/>
	<rect x="194.95" y="303.09" width="7.87" height="7.88"/>
	<rect x="194.95" y="295.22" class="st0" width="7.87" height="7.87"/>
	<rect x="194.95" y="287.35" class="st0" width="7.87" height="7.87"/>
	<rect x="194.95" y="279.47" class="st0" width="7.87" height="7.88"/>
	<rect x="194.95" y="271.6" class="st0" width="7.87" height="7.87"/>
	<rect x="194.95" y="263.73" class="st0" width="7.87" height="7.87"/>
	<rect x="194.95" y="255.86" class="st0" width="7.87" height="7.87"/>
	<rect x="194.95" y="247.98" class="st0" width="7.87" height="7.88"/>
	<rect x="194.95" y="240.11" class="st0" width="7.87" height="7.87"/>
	<rect x="194.95" y="232.24" class="st0" width="7.87" height="7.87"/>
	<rect x="194.95" y="224.36" class="st0" width="7.87" height="7.88"/>
	<rect x="194.95" y="216.49" class="st0" width="7.87" height="7.87"/>
	<rect x="194.95" y="208.62" class="st0" width="7.87" height="7.87"/>
	<rect x="194.95" y="200.74" width="7.87" height="7.88"/>
	<rect x="194.95" y="192.87" width="7.87" height="7.87"/>
	<rect x="187.07" y="326.71" width="7.88" height="7.88"/>
	<rect x="187.07" y="303.09" width="7.88" height="7.88"/>
	<rect x="187.07" y="295.22" class="st0" width="7.88" height="7.87"/>
	<rect x="187.07" y="287.35" class="st0" width="7.88" height="7.87"/>
	<rect x="187.07" y="279.47" class="st0" width="7.88" height="7.88"/>
	<rect x="187.07" y="271.6" class="st0" width="7.88" height="7.87"/>
	<rect x="187.07" y="263.73" class="st0" width="7.88" height="7.87"/>
	<rect x="187.07" y="255.86" class="st0" width="7.88" height="7.87"/>
	<rect x="187.07" y="247.98" class="st0" width="7.88" height="7.88"/>
	<rect x="187.07" y="240.11" class="st0" width="7.88" height="7.87"/>
	<rect x="187.07" y="232.24" class="st0" width="7.88" height="7.87"/>
	<rect x="187.07" y="224.36" class="st0" width="7.88" height="7.88"/>
	<rect x="187.07" y="216.49" class="st0" width="7.88" height="7.87"/>
	<rect x="187.07" y="208.62" width="7.88" height="7.87"/>
	<rect x="179.2" y="326.71" width="7.87" height="7.88"/>
	<rect x="179.2" y="318.84" width="7.87" height="7.87"/>
	<rect x="179.2" y="310.97" width="7.87" height="7.87"/>
	<rect x="179.2" y="303.09" width="7.87" height="7.88"/>
	<rect x="179.2" y="295.22" class="st0" width="7.87" height="7.87"/>
	<rect x="179.2" y="287.35" class="st0" width="7.87" height="7.87"/>
	<rect x="179.2" y="279.47" class="st0" width="7.87" height="7.88"/>
	<rect x="179.2" y="271.6" class="st0" width="7.87" height="7.87"/>
	<rect x="179.2" y="263.73" class="st0" width="7.87" height="7.87"/>
	<rect x="179.2" y="255.86" class="st0" width="7.87" height="7.87"/>
	<rect x="179.2" y="247.98" class="st0" width="7.87" height="7.88"/>
	<rect x="179.2" y="240.11" class="st0" width="7.87" height="7.87"/>
	<rect x="179.2" y="232.24" class="st0" width="7.87" height="7.87"/>
	<rect x="179.2" y="224.36" class="st0" width="7.87" height="7.88"/>
	<rect x="179.2" y="216.49" width="7.87" height="7.87"/>
	<rect x="179.2" y="208.62" width="7.87" height="7.87"/>
	<rect x="171.33" y="326.71" width="7.87" height="7.88"/>
	<rect x="171.33" y="318.84" width="7.87" height="7.87"/>
	<rect x="171.33" y="310.97" width="7.87" height="7.87"/>
	<rect x="171.33" y="303.09" width="7.87" height="7.88"/>
	<rect x="171.33" y="295.22" class="st0" width="7.87" height="7.87"/>
	<rect x="171.33" y="287.35" class="st0" width="7.87" height="7.87"/>
	<rect x="171.33" y="279.47" class="st0" width="7.87" height="7.88"/>
	<rect x="171.33" y="271.6" class="st0" width="7.87" height="7.87"/>
	<rect x="171.33" y="263.73" class="st0" width="7.87" height="7.87"/>
	<rect x="171.33" y="255.86" class="st0" width="7.87" height="7.87"/>
	<rect x="171.33" y="247.98" class="st0" width="7.87" height="7.88"/>
	<rect x="171.33" y="240.11" class="st0" width="7.87" height="7.87"/>
	<rect x="171.33" y="232.24" class="st0" width="7.87" height="7.87"/>
	<rect x="171.33" y="224.36" width="7.87" height="7.88"/>
	<rect x="163.46" y="303.09" width="7.87" height="7.88"/>
	<rect x="163.46" y="295.22" class="st0" width="7.87" height="7.87"/>
	<rect x="163.46" y="287.35" class="st0" width="7.87" height="7.87"/>
	<rect x="163.46" y="279.47" class="st0" width="7.87" height="7.88"/>
	<rect x="163.46" y="271.6" class="st0" width="7.87" height="7.87"/>
	<rect x="163.46" y="263.73" class="st0" width="7.87" height="7.87"/>
	<rect x="163.46" y="255.86" class="st0" width="7.87" height="7.87"/>
	<rect x="163.46" y="247.98" class="st0" width="7.87" height="7.88"/>
	<rect x="163.46" y="240.11" class="st0" width="7.87" height="7.87"/>
	<rect x="163.46" y="232.24" width="7.87" height="7.87"/>
	<rect x="163.46" y="224.36" width="7.87" height="7.88"/>
	<rect x="155.58" y="303.09" width="7.88" height="7.88"/>
	<rect x="155.58" y="295.22" class="st0" width="7.88" height="7.87"/>
	<rect x="155.58" y="287.35" class="st0" width="7.88" height="7.87"/>
	<rect x="155.58" y="279.47" class="st0" width="7.88" height="7.88"/>
	<rect x="155.58" y="271.6" class="st0" width="7.88" height="7.87"/>
	<rect x="155.58" y="263.73" class="st0" width="7.88" height="7.87"/>
	<rect x="155.58" y="255.86" class="st0" width="7.88" height="7.87"/>
	<rect x="155.58" y="247.98" class="st0" width="7.88" height="7.88"/>
	<rect x="155.58" y="240.11" width="7.88" height="7.87"/>
	<rect x="147.71" y="303.09" width="7.87" height="7.88"/>
	<rect x="147.71" y="295.22" class="st0" width="7.87" height="7.87"/>
	<rect x="147.71" y="287.35" class="st0" width="7.87" height="7.87"/>
	<rect x="147.71" y="279.47" class="st0" width="7.87" height="7.88"/>
	<rect x="147.71" y="271.6" class="st0" width="7.87" height="7.87"/>
	<rect x="147.71" y="263.73" class="st0" width="7.87" height="7.87"/>
	<rect x="147.71" y="255.86" class="st0" width="7.87" height="7.87"/>
	<rect x="147.71" y="247.98" width="7.87" height="7.88"/>
	<rect x="147.71" y="240.11" width="7.87" height="7.87"/>
	<rect x="139.84" y="326.71" width="7.87" height="7.88"/>
	<rect x="139.84" y="303.09" width="7.87" height="7.88"/>
	<rect x="139.84" y="295.22" class="st0" width="7.87" height="7.87"/>
	<rect x="139.84" y="287.35" class="st0" width="7.87" height="7.87"/>
	<rect x="139.84" y="279.47" class="st0" width="7.87" height="7.88"/>
	<rect x="139.84" y="271.6" class="st0" width="7.87" height="7.87"/>
	<rect x="139.84" y="263.73" class="st0" width="7.87" height="7.87"/>
	<rect x="139.84" y="255.86" width="7.87" height="7.87"/>
	<rect x="131.96" y="326.71" width="7.88" height="7.88"/>
	<rect x="131.96" y="318.84" width="7.88" height="7.87"/>
	<rect x="131.96" y="310.97" width="7.88" height="7.87"/>
	<rect x="131.96" y="303.09" width="7.88" height="7.88"/>
	<rect x="131.96" y="295.22" class="st0" width="7.88" height="7.87"/>
	<rect x="131.96" y="287.35" class="st0" width="7.88" height="7.87"/>
	<rect x="131.96" y="279.47" class="st0" width="7.88" height="7.88"/>
	<rect x="131.96" y="271.6" class="st0" width="7.88" height="7.87"/>
	<rect x="131.96" y="263.73" width="7.88" height="7.87"/>
	<rect x="124.09" y="326.71" width="7.87" height="7.88"/>
	<rect x="124.09" y="318.84" width="7.87" height="7.87"/>
	<rect x="124.09" y="310.97" width="7.87" height="7.87"/>
	<rect x="124.09" y="303.09" width="7.87" height="7.88"/>
	<rect x="124.09" y="295.22" class="st0" width="7.87" height="7.87"/>
	<rect x="124.09" y="287.35" class="st0" width="7.87" height="7.87"/>
	<rect x="124.09" y="279.47" class="st0" width="7.87" height="7.88"/>
	<rect x="124.09" y="271.6" class="st0" width="7.87" height="7.87"/>
	<rect x="124.09" y="263.73" width="7.87" height="7.87"/>
	<rect x="116.22" y="303.09" width="7.87" height="7.88"/>
	<rect x="116.22" y="295.22" class="st0" width="7.87" height="7.87"/>
	<rect x="116.22" y="287.35" class="st0" width="7.87" height="7.87"/>
	<rect x="116.22" y="279.47" class="st0" width="7.87" height="7.88"/>
	<rect x="116.22" y="271.6" class="st0" width="7.87" height="7.87"/>
	<rect x="116.22" y="263.73" width="7.87" height="7.87"/>
	<rect x="108.34" y="303.09" width="7.88" height="7.88"/>
	<rect x="108.34" y="295.22" class="st0" width="7.88" height="7.87"/>
	<rect x="108.34" y="287.35" class="st0" width="7.88" height="7.87"/>
	<rect x="108.34" y="279.47" class="st0" width="7.88" height="7.88"/>
	<rect x="108.34" y="271.6" width="7.88" height="7.87"/>
	<rect x="100.47" y="303.09" width="7.87" height="7.88"/>
	<rect x="100.47" y="295.22" class="st0" width="7.87" height="7.87"/>
	<rect x="100.47" y="287.35" class="st0" width="7.87" height="7.87"/>
	<rect x="100.47" y="279.47" class="st0" width="7.87" height="7.88"/>
	<rect x="100.47" y="271.6" width="7.87" height="7.87"/>
	<rect x="92.6" y="303.09" width="7.87" height="7.88"/>
	<rect x="92.6" y="295.22" class="st0" width="7.87" height="7.87"/>
	<rect x="92.6" y="287.35" class="st0" width="7.87" height="7.87"/>
	<rect x="92.6" y="279.47" class="st0" width="7.87" height="7.88"/>
	<rect x="92.6" y="271.6" width="7.87" height="7.87"/>
	<rect x="84.73" y="303.09" width="7.87" height="7.88"/>
	<rect x="84.73" y="295.22" class="st0" width="7.87" height="7.87"/>
	<rect x="84.73" y="287.35" class="st0" width="7.87" height="7.87"/>
	<rect x="84.73" y="279.47" class="st0" width="7.87" height="7.88"/>
	<rect x="84.73" y="271.6" width="7.87" height="7.87"/>
	<rect x="76.85" y="303.09" width="7.88" height="7.88"/>
	<rect x="76.85" y="295.22" class="st0" width="7.88" height="7.87"/>
	<rect x="76.85" y="287.35" class="st0" width="7.88" height="7.87"/>
	<rect x="76.85" y="279.47" class="st0" width="7.88" height="7.88"/>
	<rect x="76.85" y="271.6" width="7.88" height="7.87"/>
	<rect x="68.98" y="295.22" width="7.87" height="7.87"/>
	<rect x="68.98" y="287.35" class="st0" width="7.87" height="7.87"/>
	<rect x="68.98" y="279.47" class="st0" width="7.87" height="7.88"/>
	<rect x="68.98" y="271.6" class="st0" width="7.87" height="7.87"/>
	<rect x="68.98" y="263.73" width="7.87" height="7.87"/>
	<rect x="61.11" y="295.22" width="7.87" height="7.87"/>
	<rect x="61.11" y="287.35" class="st0" width="7.87" height="7.87"/>
	<rect x="61.11" y="279.47" class="st0" width="7.87" height="7.88"/>
	<rect x="61.11" y="271.6" class="st0" width="7.87" height="7.87"/>
	<rect x="61.11" y="263.73" width="7.87" height="7.87"/>
	<rect x="53.23" y="287.35" width="7.88" height="7.87"/>
	<rect x="53.23" y="279.47" class="st0" width="7.88" height="7.88"/>
	<rect x="53.23" y="271.6" class="st0" width="7.88" height="7.87"/>
	<rect x="53.23" y="263.73" class="st0" width="7.88" height="7.87"/>
	<rect x="53.23" y="255.86" width="7.88" height="7.87"/>
	<rect x="53.23" y="247.98" width="7.88" height="7.88"/>
	<rect x="45.36" y="279.47" width="7.87" height="7.88"/>
	<rect x="45.36" y="271.6" width="7.87" height="7.87"/>
	<rect x="45.36" y="263.73" class="st0" width="7.87" height="7.87"/>
	<rect x="45.36" y="255.86" class="st0" width="7.87" height="7.87"/>
	<rect x="45.36" y="247.98" class="st0" width="7.87" height="7.88"/>
	<rect x="45.36" y="240.11" width="7.87" height="7.87"/>
	<rect x="37.49" y="263.73" width="7.87" height="7.87"/>
	<rect x="37.49" y="255.86" width="7.87" height="7.87"/>
	<rect x="37.49" y="247.98" width="7.87" height="7.88"/>
</g>
</svg>
